TITLE ""
FILE "Step3_Track40.mp3" MP3
  TRACK 01 AUDIO
    TITLE "Step3_Track40_01"
    INDEX 01 00:00:00
  TRACK 02 AUDIO
    TITLE "Step3_Track40_02"
    INDEX 01 00:00:24
  TRACK 03 AUDIO
    TITLE "Step3_Track40_03"
    INDEX 01 00:01:51
  TRACK 04 AUDIO
    TITLE "Step3_Track40_04"
    INDEX 01 00:02:31
  TRACK 05 AUDIO
    TITLE "Step3_Track40_05"
    INDEX 01 00:03:28
  TRACK 06 AUDIO
    TITLE "Step3_Track40_06"
    INDEX 01 00:03:40
  TRACK 07 AUDIO
    TITLE "Step3_Track40_07"
    INDEX 01 00:05:58
  TRACK 08 AUDIO
    TITLE "Step3_Track40_08"
    INDEX 01 00:06:11
  TRACK 09 AUDIO
    TITLE "Step3_Track40_09"
    INDEX 01 00:07:06
  TRACK 10 AUDIO
    TITLE "Step3_Track40_10"
    INDEX 01 00:07:22
  TRACK 11 AUDIO
    TITLE "Step3_Track40_11"
    INDEX 01 00:08:73
  TRACK 12 AUDIO
    TITLE "Step3_Track40_12"
    INDEX 01 00:09:31
  TRACK 13 AUDIO
    TITLE "Step3_Track40_13"
    INDEX 01 00:10:24
  TRACK 14 AUDIO
    TITLE "Step3_Track40_14"
    INDEX 01 00:10:38
  TRACK 15 AUDIO
    TITLE "Step3_Track40_15"
    INDEX 01 00:13:01
  TRACK 16 AUDIO
    TITLE "Step3_Track40_16"
    INDEX 01 00:13:09
  TRACK 17 AUDIO
    TITLE "Step3_Track40_17"
    INDEX 01 00:14:10
  TRACK 18 AUDIO
    TITLE "Step3_Track40_18"
    INDEX 01 00:14:16
  TRACK 19 AUDIO
    TITLE "Step3_Track40_19"
    INDEX 01 00:16:39
  TRACK 20 AUDIO
    TITLE "Step3_Track40_20"
    INDEX 01 00:16:60
  TRACK 21 AUDIO
    TITLE "Step3_Track40_21"
    INDEX 01 00:17:54
  TRACK 22 AUDIO
    TITLE "Step3_Track40_22"
    INDEX 01 00:17:70
  TRACK 23 AUDIO
    TITLE "Step3_Track40_23"
    INDEX 01 00:19:51
  TRACK 24 AUDIO
    TITLE "Step3_Track40_24"
    INDEX 01 00:19:64
  TRACK 25 AUDIO
    TITLE "Step3_Track40_25"
    INDEX 01 00:20:66
  TRACK 26 AUDIO
    TITLE "Step3_Track40_26"
    INDEX 01 00:20:70
  TRACK 27 AUDIO
    TITLE "Step3_Track40_27"
    INDEX 01 00:23:21
  TRACK 28 AUDIO
    TITLE "Step3_Track40_28"
    INDEX 01 00:23:58
  TRACK 29 AUDIO
    TITLE "Step3_Track40_29"
    INDEX 01 00:24:58
  TRACK 30 AUDIO
    TITLE "Step3_Track40_30"
    INDEX 01 00:24:60
  TRACK 31 AUDIO
    TITLE "Step3_Track40_31"
    INDEX 01 00:27:21
  TRACK 32 AUDIO
    TITLE "Step3_Track40_32"
    INDEX 01 00:27:68
  TRACK 33 AUDIO
    TITLE "Step3_Track40_33"
    INDEX 01 00:28:58
  TRACK 34 AUDIO
    TITLE "Step3_Track40_34"
    INDEX 01 00:28:69
  TRACK 35 AUDIO
    TITLE "Step3_Track40_35"
    INDEX 01 00:31:11
  TRACK 36 AUDIO
    TITLE "Step3_Track40_36"
    INDEX 01 00:31:48
  TRACK 37 AUDIO
    TITLE "Step3_Track40_37"
    INDEX 01 00:32:49
  TRACK 38 AUDIO
    TITLE "Step3_Track40_38"
    INDEX 01 00:32:55
  TRACK 39 AUDIO
    TITLE "Step3_Track40_39"
    INDEX 01 00:34:58
  TRACK 40 AUDIO
    TITLE "Step3_Track40_40"
    INDEX 01 00:35:20
  TRACK 41 AUDIO
    TITLE "Step3_Track40_41"
    INDEX 01 00:36:20
  TRACK 42 AUDIO
    TITLE "Step3_Track40_42"
    INDEX 01 00:36:32
  TRACK 43 AUDIO
    TITLE "Step3_Track40_43"
    INDEX 01 00:39:12
